<mxfile host="app.diagrams.net" modified="2022-09-07T05:34:39.194Z" agent="5.0 (Windows NT 10.0; Win64; x64) AppleWebKit/537.36 (KHTML, like Gecko) Chrome/105.0.0.0 Safari/537.36" etag="8ggAnFbq8_xxSfTIVrFm" version="20.2.8" type="github">
  <diagram id="x3QpqG3v1Qq8KxIQBmOJ" name="Page-1">
    <mxGraphModel dx="1427" dy="289" grid="1" gridSize="10" guides="1" tooltips="1" connect="1" arrows="1" fold="1" page="1" pageScale="1" pageWidth="850" pageHeight="1100" math="0" shadow="0">
      <root>
        <mxCell id="0" />
        <mxCell id="1" parent="0" />
        <mxCell id="PpQGrMj78GbPd30nO07A-4" value="customer" style="swimlane;fontStyle=1;align=center;verticalAlign=top;childLayout=stackLayout;horizontal=1;startSize=26;horizontalStack=0;resizeParent=1;resizeParentMax=0;resizeLast=0;collapsible=1;marginBottom=0;fillColor=#e1d5e7;strokeColor=#9673a6;" vertex="1" parent="1">
          <mxGeometry width="160" height="140" as="geometry" />
        </mxCell>
        <mxCell id="PpQGrMj78GbPd30nO07A-5" value="name &#xa;nationalId&#xa;phonenumber" style="text;strokeColor=none;fillColor=none;align=left;verticalAlign=top;spacingLeft=4;spacingRight=4;overflow=hidden;rotatable=0;points=[[0,0.5],[1,0.5]];portConstraint=eastwest;" vertex="1" parent="PpQGrMj78GbPd30nO07A-4">
          <mxGeometry y="26" width="160" height="54" as="geometry" />
        </mxCell>
        <mxCell id="PpQGrMj78GbPd30nO07A-6" value="" style="line;strokeWidth=1;fillColor=none;align=left;verticalAlign=middle;spacingTop=-1;spacingLeft=3;spacingRight=3;rotatable=0;labelPosition=right;points=[];portConstraint=eastwest;strokeColor=inherit;" vertex="1" parent="PpQGrMj78GbPd30nO07A-4">
          <mxGeometry y="80" width="160" height="8" as="geometry" />
        </mxCell>
        <mxCell id="PpQGrMj78GbPd30nO07A-7" value="+createAccount()&#xa;+deposit()&#xa;+withdrawal()" style="text;strokeColor=none;fillColor=none;align=left;verticalAlign=top;spacingLeft=4;spacingRight=4;overflow=hidden;rotatable=0;points=[[0,0.5],[1,0.5]];portConstraint=eastwest;" vertex="1" parent="PpQGrMj78GbPd30nO07A-4">
          <mxGeometry y="88" width="160" height="52" as="geometry" />
        </mxCell>
        <mxCell id="PpQGrMj78GbPd30nO07A-8" value="account" style="swimlane;fontStyle=1;align=center;verticalAlign=top;childLayout=stackLayout;horizontal=1;startSize=26;horizontalStack=0;resizeParent=1;resizeParentMax=0;resizeLast=0;collapsible=1;marginBottom=0;fillColor=#e1d5e7;strokeColor=#9673a6;" vertex="1" parent="1">
          <mxGeometry x="265" y="7" width="160" height="88" as="geometry" />
        </mxCell>
        <mxCell id="PpQGrMj78GbPd30nO07A-9" value="AccountNumber&#xa;coustomerName&#xa;balance&#xa;&#xa;" style="text;strokeColor=none;fillColor=none;align=left;verticalAlign=top;spacingLeft=4;spacingRight=4;overflow=hidden;rotatable=0;points=[[0,0.5],[1,0.5]];portConstraint=eastwest;" vertex="1" parent="PpQGrMj78GbPd30nO07A-8">
          <mxGeometry y="26" width="160" height="54" as="geometry" />
        </mxCell>
        <mxCell id="PpQGrMj78GbPd30nO07A-10" value="" style="line;strokeWidth=1;fillColor=none;align=left;verticalAlign=middle;spacingTop=-1;spacingLeft=3;spacingRight=3;rotatable=0;labelPosition=right;points=[];portConstraint=eastwest;strokeColor=inherit;" vertex="1" parent="PpQGrMj78GbPd30nO07A-8">
          <mxGeometry y="80" width="160" height="8" as="geometry" />
        </mxCell>
        <mxCell id="PpQGrMj78GbPd30nO07A-12" style="edgeStyle=orthogonalEdgeStyle;rounded=0;orthogonalLoop=1;jettySize=auto;html=1;exitX=1;exitY=0.604;exitDx=0;exitDy=0;entryX=0;entryY=0.5;entryDx=0;entryDy=0;endArrow=none;endFill=0;fillColor=#e1d5e7;strokeColor=#9673a6;exitPerimeter=0;" edge="1" parent="1" source="PpQGrMj78GbPd30nO07A-5" target="PpQGrMj78GbPd30nO07A-9">
          <mxGeometry relative="1" as="geometry" />
        </mxCell>
        <mxCell id="PpQGrMj78GbPd30nO07A-13" value="has" style="edgeLabel;html=1;align=center;verticalAlign=middle;resizable=0;points=[];" vertex="1" connectable="0" parent="PpQGrMj78GbPd30nO07A-12">
          <mxGeometry x="-0.2303" y="-1" relative="1" as="geometry">
            <mxPoint x="10" y="-1" as="offset" />
          </mxGeometry>
        </mxCell>
        <mxCell id="PpQGrMj78GbPd30nO07A-16" value="1" style="text;html=1;strokeColor=none;fillColor=none;align=center;verticalAlign=middle;whiteSpace=wrap;rounded=0;" vertex="1" parent="1">
          <mxGeometry x="166" y="37" height="30" as="geometry" />
        </mxCell>
        <mxCell id="PpQGrMj78GbPd30nO07A-17" value="1..*" style="text;html=1;strokeColor=none;fillColor=none;align=center;verticalAlign=middle;whiteSpace=wrap;rounded=0;" vertex="1" parent="1">
          <mxGeometry x="243" y="36" width="20" height="30" as="geometry" />
        </mxCell>
        <mxCell id="PpQGrMj78GbPd30nO07A-27" style="edgeStyle=orthogonalEdgeStyle;rounded=0;orthogonalLoop=1;jettySize=auto;html=1;exitX=0.5;exitY=0;exitDx=0;exitDy=0;entryX=0.499;entryY=1;entryDx=0;entryDy=0;entryPerimeter=0;endArrow=none;endFill=0;fillColor=#e1d5e7;strokeColor=#9673a6;" edge="1" parent="1" source="PpQGrMj78GbPd30nO07A-23" target="PpQGrMj78GbPd30nO07A-7">
          <mxGeometry relative="1" as="geometry" />
        </mxCell>
        <mxCell id="PpQGrMj78GbPd30nO07A-57" style="edgeStyle=orthogonalEdgeStyle;rounded=0;orthogonalLoop=1;jettySize=auto;html=1;exitX=0.5;exitY=1;exitDx=0;exitDy=0;entryX=0.5;entryY=0;entryDx=0;entryDy=0;startArrow=none;startFill=0;endArrow=none;endFill=0;fillColor=#e1d5e7;strokeColor=#9673a6;" edge="1" parent="1" source="PpQGrMj78GbPd30nO07A-23" target="PpQGrMj78GbPd30nO07A-53">
          <mxGeometry relative="1" as="geometry" />
        </mxCell>
        <mxCell id="PpQGrMj78GbPd30nO07A-58" value="managed by" style="edgeLabel;html=1;align=center;verticalAlign=middle;resizable=0;points=[];" vertex="1" connectable="0" parent="PpQGrMj78GbPd30nO07A-57">
          <mxGeometry x="-0.0771" y="-1" relative="1" as="geometry">
            <mxPoint as="offset" />
          </mxGeometry>
        </mxCell>
        <mxCell id="PpQGrMj78GbPd30nO07A-23" value="bank" style="swimlane;fontStyle=1;align=center;verticalAlign=top;childLayout=stackLayout;horizontal=1;startSize=26;horizontalStack=0;resizeParent=1;resizeParentMax=0;resizeLast=0;collapsible=1;marginBottom=0;fillColor=#e1d5e7;strokeColor=#9673a6;" vertex="1" parent="1">
          <mxGeometry y="220" width="160" height="68" as="geometry" />
        </mxCell>
        <mxCell id="PpQGrMj78GbPd30nO07A-24" value="code&#xa;address" style="text;strokeColor=none;fillColor=none;align=left;verticalAlign=top;spacingLeft=4;spacingRight=4;overflow=hidden;rotatable=0;points=[[0,0.5],[1,0.5]];portConstraint=eastwest;" vertex="1" parent="PpQGrMj78GbPd30nO07A-23">
          <mxGeometry y="26" width="160" height="34" as="geometry" />
        </mxCell>
        <mxCell id="PpQGrMj78GbPd30nO07A-25" value="" style="line;strokeWidth=1;fillColor=none;align=left;verticalAlign=middle;spacingTop=-1;spacingLeft=3;spacingRight=3;rotatable=0;labelPosition=right;points=[];portConstraint=eastwest;strokeColor=inherit;" vertex="1" parent="PpQGrMj78GbPd30nO07A-23">
          <mxGeometry y="60" width="160" height="8" as="geometry" />
        </mxCell>
        <mxCell id="PpQGrMj78GbPd30nO07A-29" value="1" style="text;html=1;strokeColor=none;fillColor=none;align=center;verticalAlign=middle;whiteSpace=wrap;rounded=0;" vertex="1" parent="1">
          <mxGeometry x="73" y="198" height="30" as="geometry" />
        </mxCell>
        <mxCell id="PpQGrMj78GbPd30nO07A-30" value="*" style="text;html=1;strokeColor=none;fillColor=none;align=center;verticalAlign=middle;whiteSpace=wrap;rounded=0;" vertex="1" parent="1">
          <mxGeometry x="73" y="135" width="2" height="30" as="geometry" />
        </mxCell>
        <mxCell id="PpQGrMj78GbPd30nO07A-31" value="ATM" style="swimlane;fontStyle=1;align=center;verticalAlign=top;childLayout=stackLayout;horizontal=1;startSize=26;horizontalStack=0;resizeParent=1;resizeParentMax=0;resizeLast=0;collapsible=1;marginBottom=0;fillColor=#e1d5e7;strokeColor=#9673a6;" vertex="1" parent="1">
          <mxGeometry x="265" y="220" width="160" height="110" as="geometry" />
        </mxCell>
        <mxCell id="PpQGrMj78GbPd30nO07A-32" value="ATMId &#xa;Location&#xa;" style="text;strokeColor=none;fillColor=none;align=left;verticalAlign=top;spacingLeft=4;spacingRight=4;overflow=hidden;rotatable=0;points=[[0,0.5],[1,0.5]];portConstraint=eastwest;" vertex="1" parent="PpQGrMj78GbPd30nO07A-31">
          <mxGeometry y="26" width="160" height="34" as="geometry" />
        </mxCell>
        <mxCell id="PpQGrMj78GbPd30nO07A-33" value="" style="line;strokeWidth=1;fillColor=none;align=left;verticalAlign=middle;spacingTop=-1;spacingLeft=3;spacingRight=3;rotatable=0;labelPosition=right;points=[];portConstraint=eastwest;strokeColor=inherit;" vertex="1" parent="PpQGrMj78GbPd30nO07A-31">
          <mxGeometry y="60" width="160" height="8" as="geometry" />
        </mxCell>
        <mxCell id="PpQGrMj78GbPd30nO07A-34" value="+updateBalance()&#xa;+getBalance" style="text;strokeColor=none;fillColor=none;align=left;verticalAlign=top;spacingLeft=4;spacingRight=4;overflow=hidden;rotatable=0;points=[[0,0.5],[1,0.5]];portConstraint=eastwest;" vertex="1" parent="PpQGrMj78GbPd30nO07A-31">
          <mxGeometry y="68" width="160" height="42" as="geometry" />
        </mxCell>
        <mxCell id="PpQGrMj78GbPd30nO07A-35" style="edgeStyle=orthogonalEdgeStyle;rounded=0;orthogonalLoop=1;jettySize=auto;html=1;entryX=1;entryY=0.5;entryDx=0;entryDy=0;endArrow=none;endFill=0;startArrow=none;startFill=0;fillColor=#e1d5e7;strokeColor=#9673a6;" edge="1" parent="1" source="PpQGrMj78GbPd30nO07A-32" target="PpQGrMj78GbPd30nO07A-24">
          <mxGeometry relative="1" as="geometry" />
        </mxCell>
        <mxCell id="PpQGrMj78GbPd30nO07A-65" value="has" style="edgeLabel;html=1;align=center;verticalAlign=middle;resizable=0;points=[];" vertex="1" connectable="0" parent="PpQGrMj78GbPd30nO07A-35">
          <mxGeometry x="0.1429" y="1" relative="1" as="geometry">
            <mxPoint as="offset" />
          </mxGeometry>
        </mxCell>
        <mxCell id="PpQGrMj78GbPd30nO07A-36" value="1" style="text;html=1;strokeColor=none;fillColor=none;align=center;verticalAlign=middle;whiteSpace=wrap;rounded=0;" vertex="1" parent="1">
          <mxGeometry x="164" y="237" height="30" as="geometry" />
        </mxCell>
        <mxCell id="PpQGrMj78GbPd30nO07A-37" value="0..*" style="text;html=1;strokeColor=none;fillColor=none;align=center;verticalAlign=middle;whiteSpace=wrap;rounded=0;" vertex="1" parent="1">
          <mxGeometry x="248" y="238" width="14" height="30" as="geometry" />
        </mxCell>
        <mxCell id="PpQGrMj78GbPd30nO07A-38" style="edgeStyle=orthogonalEdgeStyle;rounded=0;orthogonalLoop=1;jettySize=auto;html=1;exitX=1;exitY=0.5;exitDx=0;exitDy=0;entryX=0.5;entryY=0;entryDx=0;entryDy=0;startArrow=none;startFill=0;endArrow=none;endFill=0;fillColor=#e1d5e7;strokeColor=#9673a6;" edge="1" parent="1" source="PpQGrMj78GbPd30nO07A-7" target="PpQGrMj78GbPd30nO07A-31">
          <mxGeometry relative="1" as="geometry">
            <Array as="points">
              <mxPoint x="345" y="114" />
            </Array>
          </mxGeometry>
        </mxCell>
        <mxCell id="PpQGrMj78GbPd30nO07A-39" value="can use" style="edgeLabel;html=1;align=center;verticalAlign=middle;resizable=0;points=[];" vertex="1" connectable="0" parent="PpQGrMj78GbPd30nO07A-38">
          <mxGeometry x="0.1124" y="1" relative="1" as="geometry">
            <mxPoint as="offset" />
          </mxGeometry>
        </mxCell>
        <mxCell id="PpQGrMj78GbPd30nO07A-40" value="1" style="text;html=1;strokeColor=none;fillColor=none;align=center;verticalAlign=middle;whiteSpace=wrap;rounded=0;" vertex="1" parent="1">
          <mxGeometry x="126.5" y="89" width="77" height="30" as="geometry" />
        </mxCell>
        <mxCell id="PpQGrMj78GbPd30nO07A-41" value="0..*" style="text;html=1;strokeColor=none;fillColor=none;align=center;verticalAlign=middle;whiteSpace=wrap;rounded=0;" vertex="1" parent="1">
          <mxGeometry x="327" y="198" width="14" height="30" as="geometry" />
        </mxCell>
        <mxCell id="PpQGrMj78GbPd30nO07A-42" style="edgeStyle=orthogonalEdgeStyle;rounded=0;orthogonalLoop=1;jettySize=auto;html=1;exitX=1;exitY=0.5;exitDx=0;exitDy=0;startArrow=none;startFill=0;endArrow=none;endFill=0;fillColor=#e1d5e7;strokeColor=#9673a6;" edge="1" parent="1" source="PpQGrMj78GbPd30nO07A-32" target="PpQGrMj78GbPd30nO07A-9">
          <mxGeometry relative="1" as="geometry">
            <Array as="points">
              <mxPoint x="470" y="263" />
              <mxPoint x="470" y="58" />
            </Array>
          </mxGeometry>
        </mxCell>
        <mxCell id="PpQGrMj78GbPd30nO07A-45" value="update" style="edgeLabel;html=1;align=center;verticalAlign=middle;resizable=0;points=[];" vertex="1" connectable="0" parent="PpQGrMj78GbPd30nO07A-42">
          <mxGeometry x="-0.0906" y="1" relative="1" as="geometry">
            <mxPoint as="offset" />
          </mxGeometry>
        </mxCell>
        <mxCell id="PpQGrMj78GbPd30nO07A-44" value="1" style="text;html=1;strokeColor=none;fillColor=none;align=center;verticalAlign=middle;whiteSpace=wrap;rounded=0;" vertex="1" parent="1">
          <mxGeometry x="392" y="237" width="77" height="30" as="geometry" />
        </mxCell>
        <mxCell id="PpQGrMj78GbPd30nO07A-46" value="0..*" style="text;html=1;strokeColor=none;fillColor=none;align=center;verticalAlign=middle;whiteSpace=wrap;rounded=0;" vertex="1" parent="1">
          <mxGeometry x="429" y="34" width="14" height="30" as="geometry" />
        </mxCell>
        <mxCell id="PpQGrMj78GbPd30nO07A-51" style="edgeStyle=orthogonalEdgeStyle;rounded=0;orthogonalLoop=1;jettySize=auto;html=1;startArrow=none;startFill=0;endArrow=block;endFill=0;fillColor=#e1d5e7;strokeColor=#9673a6;entryX=0.75;entryY=1;entryDx=0;entryDy=0;" edge="1" parent="1" target="PpQGrMj78GbPd30nO07A-8">
          <mxGeometry relative="1" as="geometry">
            <mxPoint x="520" y="80" as="sourcePoint" />
            <mxPoint x="360" y="136" as="targetPoint" />
            <Array as="points">
              <mxPoint x="520" y="80" />
              <mxPoint x="440" y="80" />
              <mxPoint x="440" y="136" />
              <mxPoint x="385" y="136" />
            </Array>
          </mxGeometry>
        </mxCell>
        <mxCell id="PpQGrMj78GbPd30nO07A-47" value="SavingAccount" style="swimlane;fontStyle=1;align=center;verticalAlign=middle;childLayout=stackLayout;horizontal=1;startSize=29;horizontalStack=0;resizeParent=1;resizeParentMax=0;resizeLast=0;collapsible=0;marginBottom=0;html=1;fillColor=#e1d5e7;strokeColor=#9673a6;" vertex="1" parent="1">
          <mxGeometry x="520" y="34" width="140" height="51" as="geometry" />
        </mxCell>
        <mxCell id="PpQGrMj78GbPd30nO07A-52" style="edgeStyle=orthogonalEdgeStyle;rounded=0;orthogonalLoop=1;jettySize=auto;html=1;exitX=0;exitY=0.5;exitDx=0;exitDy=0;entryX=0.75;entryY=1;entryDx=0;entryDy=0;startArrow=none;startFill=0;endArrow=block;endFill=0;fillColor=#e1d5e7;strokeColor=#9673a6;" edge="1" parent="1" source="PpQGrMj78GbPd30nO07A-50" target="PpQGrMj78GbPd30nO07A-8">
          <mxGeometry relative="1" as="geometry" />
        </mxCell>
        <mxCell id="PpQGrMj78GbPd30nO07A-50" value="CurrentAccount" style="swimlane;fontStyle=1;align=center;verticalAlign=middle;childLayout=stackLayout;horizontal=1;startSize=29;horizontalStack=0;resizeParent=1;resizeParentMax=0;resizeLast=0;collapsible=0;marginBottom=0;html=1;fillColor=#e1d5e7;strokeColor=#9673a6;" vertex="1" parent="1">
          <mxGeometry x="520" y="110" width="140" height="51" as="geometry" />
        </mxCell>
        <mxCell id="PpQGrMj78GbPd30nO07A-53" value="Employee" style="swimlane;fontStyle=1;align=center;verticalAlign=top;childLayout=stackLayout;horizontal=1;startSize=26;horizontalStack=0;resizeParent=1;resizeParentMax=0;resizeLast=0;collapsible=1;marginBottom=0;fillColor=#e1d5e7;strokeColor=#9673a6;" vertex="1" parent="1">
          <mxGeometry y="380" width="160" height="114" as="geometry" />
        </mxCell>
        <mxCell id="PpQGrMj78GbPd30nO07A-54" value="name&#xa;Id&#xa;Department " style="text;strokeColor=none;fillColor=none;align=left;verticalAlign=top;spacingLeft=4;spacingRight=4;overflow=hidden;rotatable=0;points=[[0,0.5],[1,0.5]];portConstraint=eastwest;" vertex="1" parent="PpQGrMj78GbPd30nO07A-53">
          <mxGeometry y="26" width="160" height="54" as="geometry" />
        </mxCell>
        <mxCell id="PpQGrMj78GbPd30nO07A-55" value="" style="line;strokeWidth=1;fillColor=none;align=left;verticalAlign=middle;spacingTop=-1;spacingLeft=3;spacingRight=3;rotatable=0;labelPosition=right;points=[];portConstraint=eastwest;strokeColor=inherit;" vertex="1" parent="PpQGrMj78GbPd30nO07A-53">
          <mxGeometry y="80" width="160" height="8" as="geometry" />
        </mxCell>
        <mxCell id="PpQGrMj78GbPd30nO07A-56" value="manages()" style="text;strokeColor=none;fillColor=none;align=left;verticalAlign=top;spacingLeft=4;spacingRight=4;overflow=hidden;rotatable=0;points=[[0,0.5],[1,0.5]];portConstraint=eastwest;" vertex="1" parent="PpQGrMj78GbPd30nO07A-53">
          <mxGeometry y="88" width="160" height="26" as="geometry" />
        </mxCell>
        <mxCell id="PpQGrMj78GbPd30nO07A-59" value="1" style="text;html=1;align=center;verticalAlign=middle;resizable=0;points=[];autosize=1;strokeColor=none;fillColor=none;" vertex="1" parent="1">
          <mxGeometry x="59" y="282" width="30" height="30" as="geometry" />
        </mxCell>
        <mxCell id="PpQGrMj78GbPd30nO07A-60" value="*" style="text;html=1;align=center;verticalAlign=middle;resizable=0;points=[];autosize=1;strokeColor=none;fillColor=none;" vertex="1" parent="1">
          <mxGeometry x="57" y="360" width="30" height="30" as="geometry" />
        </mxCell>
        <mxCell id="PpQGrMj78GbPd30nO07A-61" style="edgeStyle=orthogonalEdgeStyle;rounded=0;orthogonalLoop=1;jettySize=auto;html=1;exitX=0;exitY=0.5;exitDx=0;exitDy=0;startArrow=none;startFill=0;endArrow=none;endFill=0;entryX=0;entryY=0.5;entryDx=0;entryDy=0;fillColor=#e1d5e7;strokeColor=#9673a6;" edge="1" parent="1" source="PpQGrMj78GbPd30nO07A-54" target="PpQGrMj78GbPd30nO07A-5">
          <mxGeometry relative="1" as="geometry">
            <mxPoint x="-20" y="80" as="targetPoint" />
            <Array as="points">
              <mxPoint x="-50" y="433" />
              <mxPoint x="-50" y="53" />
            </Array>
          </mxGeometry>
        </mxCell>
        <mxCell id="PpQGrMj78GbPd30nO07A-62" value="serve" style="edgeLabel;html=1;align=center;verticalAlign=middle;resizable=0;points=[];" vertex="1" connectable="0" parent="PpQGrMj78GbPd30nO07A-61">
          <mxGeometry x="0.1117" y="2" relative="1" as="geometry">
            <mxPoint as="offset" />
          </mxGeometry>
        </mxCell>
        <mxCell id="PpQGrMj78GbPd30nO07A-63" value="1" style="text;html=1;align=center;verticalAlign=middle;resizable=0;points=[];autosize=1;strokeColor=none;fillColor=none;" vertex="1" parent="1">
          <mxGeometry x="-25" y="409" width="30" height="30" as="geometry" />
        </mxCell>
        <mxCell id="PpQGrMj78GbPd30nO07A-64" value="0..*" style="text;html=1;align=center;verticalAlign=middle;resizable=0;points=[];autosize=1;strokeColor=none;fillColor=none;" vertex="1" parent="1">
          <mxGeometry x="-33" y="29" width="40" height="30" as="geometry" />
        </mxCell>
      </root>
    </mxGraphModel>
  </diagram>
</mxfile>
